<svg width="12" height="12" viewBox="0 0 12 12" fill="none" xmlns="http://www.w3.org/2000/svg">
    <path fill-rule="evenodd" clip-rule="evenodd" d="M5.99995 0.459995C6.7276 0.459143 7.44826 0.602055 8.12052 0.880524C8.79282 1.15901 9.40348 1.56758 9.91741 2.08276C10.4325 2.59666 10.841 3.20724 11.1194 3.87945C11.3979 4.5517 11.5408 5.27234 11.54 5.99998C11.5408 6.72763 11.3979 7.44829 11.1194 8.12055C10.841 8.79281 10.4324 9.40342 9.9173 9.91733C9.40339 10.4325 8.79278 10.841 8.12052 11.1195C7.44826 11.3979 6.7276 11.5408 5.99995 11.54C5.27231 11.5408 4.55167 11.3979 3.87942 11.1194C3.20721 10.841 2.59663 10.4325 2.08273 9.91744C1.56755 9.40351 1.15898 8.79285 0.880494 8.12055C0.602024 7.44829 0.459112 6.72763 0.459965 5.99998C0.459129 5.27234 0.602047 4.5517 0.880513 3.87945C1.15898 3.20719 1.5675 2.59657 2.08263 2.08266C2.59654 1.56754 3.20716 1.15901 3.87942 0.880544C4.55167 0.602078 5.27231 0.45916 5.99995 0.459995ZM5.99997 11L6.00066 10.46C6.58625 10.4608 7.16621 10.3458 7.70721 10.1217C8.24822 9.89758 8.7396 9.56878 9.15312 9.15416L9.15413 9.15315C9.56875 8.73963 9.89755 8.24825 10.1217 7.70724C10.3457 7.16624 10.4607 6.58628 10.46 6.0007V5.99931C10.4607 5.41372 10.3457 4.83376 10.1216 4.29276C9.89753 3.75175 9.56873 3.26036 9.15412 2.84683L9.15312 2.84583C8.7396 2.43121 8.24822 2.10241 7.70721 1.87831C7.16621 1.65421 6.58625 1.53924 6.00066 1.54H5.99928C5.41369 1.53925 4.83373 1.65423 4.29273 1.87833C3.75172 2.10243 3.26033 2.43123 2.8468 2.84584L2.84581 2.84683L2.84581 2.84683C2.4312 3.26036 2.1024 3.75175 1.8783 4.29276C1.6542 4.83376 1.53922 5.41372 1.53996 5.99931V6.0007C1.53921 6.58628 1.65418 7.16624 1.87828 7.70724C2.10238 8.24825 2.43118 8.73963 2.8458 9.15315L2.8468 9.15415C3.26033 9.56876 3.75172 9.89756 4.29273 10.1217C4.83373 10.3458 5.41369 10.4607 5.99928 10.46L5.99997 11Z" fill="#DB5555" />
    <path fill-rule="evenodd" clip-rule="evenodd" d="M6 9.24999C6.16576 9.24999 6.32473 9.18414 6.44194 9.06693C6.55915 8.94972 6.625 8.79075 6.625 8.62499C6.625 8.45923 6.55915 8.30026 6.44194 8.18305C6.32473 8.06584 6.16576 7.99999 6 7.99999C5.83424 7.99999 5.67527 8.06584 5.55806 8.18305C5.44085 8.30026 5.375 8.45923 5.375 8.62499C5.375 8.79075 5.44085 8.94972 5.55806 9.06693C5.67527 9.18414 5.83424 9.24999 6 9.24999Z" fill="#DB5555" />
    <path fill-rule="evenodd" clip-rule="evenodd" d="M5.99996 2.45999C6.29819 2.45999 6.53996 2.70176 6.53996 2.99999V6.99999C6.53996 7.29822 6.29819 7.53999 5.99996 7.53999C5.70173 7.53999 5.45996 7.29822 5.45996 6.99999V2.99999C5.45996 2.70176 5.70173 2.45999 5.99996 2.45999Z" fill="#DB5555" />
</svg>
    